# xmcd
#
# Track frame offsets: 
#        150
#        15200
#        28907
#        42987
#        55319
#        67738
#        81726
#        96342
#        106497
#        117513
#        131671
#        146835
#        161769
#        175773
#        187448
#        202541
#        216864
#        228479
#        243029
#        256353
#
# Disc length: 3585 seconds
#
# Revision: 0
# Processed by: cddbd v1.5.1PL0 Copyright (c) Steve Scherf et al.
# Submitted via: ExactAudioCopy v0.95a4
#
DISCID=220dff14
DTITLE=Ella Fitzgerald - Ella - Disc 2
DYEAR=2004
DGENRE=Blues
TTITLE0=Mixed Emotions
TTITLE1=A Little Bit Later On
TTITLE2=Smooth Sailing
TTITLE3=Take Another Guess
TTITLE4=Everybody Step
TTITLE5=Baby What Else Can I Do
TTITLE6=Ain't Nobody's Business
TTITLE7=I Don't Want The World With A Fence Around It
TTITLE8=When I Get Low, I Get High
TTITLE9=Love You're Just A Laugh
TTITLE10=I Got A Guy
TTITLE11=I've Got The World On A String
TTITLE12=I Can't Stop From Loving You
TTITLE13=Sing Me A Swing Song
TTITLE14=The Frim Fram Sauce
TTITLE15=Rock It For Me
TTITLE16=Three Little Words
TTITLE17=The Starlit Hour
TTITLE18=Pack Up Your Sins And Go To The Devil
TTITLE19=Shake Down The Stars
EXTD=
EXTT0=
EXTT1=
EXTT2=
EXTT3=
EXTT4=
EXTT5=
EXTT6=
EXTT7=
EXTT8=
EXTT9=
EXTT10=
EXTT11=
EXTT12=
EXTT13=
EXTT14=
EXTT15=
EXTT16=
EXTT17=
EXTT18=
EXTT19=
PLAYORDER=
